<svg xmlns="http://www.w3.org/2000/svg" viewBox="0 0 47.3 45.8" fill="currentColor"><path d="M29.2 32.3c0 .7.2 1.3.7 1.7.5.5 1.1.7 1.9.7.8 0 1.5-.2 1.9-.7.5-.5.7-1 .7-1.7v-.1c0-.7-.2-1.3-.7-1.7-.5-.5-1.1-.7-1.9-.7-.8 0-1.5.2-1.9.7-.4.5-.7 1.1-.7 1.8z" fill="none"/><path d="M32.8 23.6c.7 0 1.4.1 2 .4.6.3 1.2.6 1.7 1l2.4-3.7c-.9-.7-1.8-1.2-2.8-1.6-1-.4-2.1-.5-3.4-.5-1.5 0-2.7.3-3.8.8-1.1.5-2 1.3-2.7 2.2-.7.9-1.3 2-1.6 3.3-.4 1.3-.5 2.6-.5 4.1v.1c0 1.8.2 3.2.6 4.3.4 1.1 1 2 1.7 2.7.7.7 1.5 1.2 2.4 1.6.9.4 2 .6 3.3.6 1 0 2-.2 2.9-.5.9-.3 1.7-.8 2.4-1.3.7-.6 1.2-1.3 1.6-2.1.4-.8.6-1.8.6-2.8V32c0-.9-.2-1.8-.5-2.5s-.8-1.3-1.3-1.8c-.6-.5-1.2-.9-2-1.1-.7-.3-1.5-.4-2.3-.4-.9 0-1.7.1-2.3.4-.6.3-1.2.6-1.7 1 .1-1.2.5-2.1 1-2.9.4-.7 1.2-1.1 2.3-1.1zm-2.9 7c.5-.5 1.1-.7 1.9-.7.8 0 1.5.2 1.9.7.5.5.7 1 .7 1.7v.1c0 .7-.2 1.3-.7 1.7-.5.5-1.1.7-1.9.7-.8 0-1.5-.2-1.9-.7-.5-.5-.7-1.1-.7-1.7v-.1c0-.7.3-1.3.7-1.7zm-15.1-1.4-7 5.4v3.9h14.8v-4.2h-7.7l3.2-2.3c.7-.5 1.3-1 1.8-1.4.5-.5 1-1 1.4-1.5.4-.5.7-1.1.8-1.6.2-.6.3-1.3.3-2v-.1c0-.9-.2-1.7-.5-2.4s-.8-1.4-1.4-1.9c-.6-.5-1.3-.9-2.2-1.2-.8-.3-1.8-.4-2.8-.4-.9 0-1.7.1-2.4.3-.7.2-1.4.4-2 .8-.6.3-1.2.8-1.7 1.3s-1 1.1-1.5 1.7l3.5 2.9c.7-.8 1.4-1.5 1.9-1.8.6-.4 1.2-.6 1.8-.6.6 0 1.1.2 1.5.5.4.3.6.8.6 1.4 0 .6-.2 1.1-.5 1.6-.4.3-1 .9-1.9 1.6z"/><path d="M44.3 16.7v25.4c0 .6-.1.7-.7.7H3.8c-.6 0-.7-.1-.7-.7V16.7h-3V44c0 1 .8 1.8 1.8 1.8h43.4c1 0 1.8-.8 1.8-1.8V16.7h-2.8zM13.9 7.9h.4c1.1 0 2-.9 2-2V2.2c0-1.1-.9-2-2-2h-.4c-1.1 0-2 .9-2 2v3.7c0 1.1.9 2 2 2zm19.2 0h.4c1.1 0 2-.9 2-2V2.2c0-1.1-.9-2-2-2h-.4c-1.1 0-2 .9-2 2v3.7c-.1 1.1.8 2 2 2z"/><path d="M44.3 15.2h2.9V5.7c0-1-.8-1.8-1.8-1.8h-9.2v2c0 1.5-1.2 2.8-2.8 2.8H33c-1.5 0-2.8-1.2-2.8-2.8v-2H17.1v2c0 1.5-1.2 2.8-2.8 2.8h-.4c-1.5 0-2.8-1.2-2.8-2.8v-2H2C1 3.9.2 4.7.2 5.7v9.6h44.1z"/></svg>