<svg xmlns="http://www.w3.org/2000/svg" viewBox="0 0 80.13 67.43" fill="currentColor"><path d="M48.35 11.57a14.57 14.57 0 0 1 6.78 10.82A11.75 11.75 0 1 0 60.1 0a11.76 11.76 0 0 0-11.75 11.57zm-7.69 24.07A11.76 11.76 0 1 0 28.9 23.88a11.76 11.76 0 0 0 11.76 11.76zm5 .8h-10a15.06 15.06 0 0 0-15 15v12.39l.84.26A68.33 68.33 0 0 0 42 67.43c11.06 0 17.47-3.15 17.87-3.35l.78-.4h.08v-12.2a15 15 0 0 0-15.09-15.04zM65.08 24.3h-9.89a14.5 14.5 0 0 1-4.47 10.09A17.9 17.9 0 0 1 63.49 51.5v3.76c9.77-.36 15.4-3.13 15.77-3.31l.79-.4h.08v-12.2A15.07 15.07 0 0 0 65.08 24.3zm-45-.8a11.69 11.69 0 0 0 6.25-1.81 14.61 14.61 0 0 1 5.47-9.28v-.66A11.75 11.75 0 1 0 20 23.5zm10.51 10.89a14.51 14.51 0 0 1-4.47-10c-.36 0-.73-.06-1.1-.06h-10A15.07 15.07 0 0 0 0 39.35v12.39l.87.26a70.79 70.79 0 0 0 17 3.19V51.5a17.88 17.88 0 0 1 12.72-17.11z"/></svg>