<svg xmlns="http://www.w3.org/2000/svg" viewBox="0 0 54.9 37.7" fill="currentColor"><path d="M54.9 0v32.6c0 1.4-.5 2.6-1.5 3.6s-2.2 1.5-3.6 1.5H5.1c-1.4 0-2.6-.5-3.6-1.5S0 34 0 32.6V3.4h6.9V0h48zm-48 32.6V6.9H3.4v25.7c0 .5.2.9.5 1.2.3.3.7.5 1.2.5s.9-.2 1.2-.5c.4-.4.6-.8.6-1.2zm44.5 0V3.4H10.3v29.1c0 .6-.1 1.2-.3 1.7h39.7c.5 0 .9-.2 1.2-.5.4-.3.5-.7.5-1.1zM30.9 6.9V24H13.7V6.9h17.2zm0 20.5v3.4H13.7v-3.4h17.2zm-3.5-17.1H17.1v10.3h10.3V10.3zM48 6.9v3.4H34.3V6.9H48zm0 6.8v3.4H34.3v-3.4H48zm0 6.9V24H34.3v-3.4H48zm0 6.8v3.4H34.3v-3.4H48z"/></svg>